<svg width="30" height="27" viewBox="0 0 30 27" fill="none" xmlns="http://www.w3.org/2000/svg">
<path d="M9.5 25.5H20.1667M14.8333 20.1667V25.5M7.9 20.1667H21.7667C24.0069 20.1667 25.127 20.1667 25.9826 19.7307C26.7353 19.3472 27.3472 18.7353 27.7307 17.9826C28.1667 17.127 28.1667 16.0069 28.1667 13.7667V7.9C28.1667 5.65979 28.1667 4.53969 27.7307 3.68404C27.3472 2.93139 26.7353 2.31947 25.9826 1.93597C25.127 1.5 24.0069 1.5 21.7667 1.5H7.9C5.65979 1.5 4.53969 1.5 3.68404 1.93597C2.93139 2.31947 2.31947 2.93139 1.93597 3.68404C1.5 4.53969 1.5 5.65979 1.5 7.9V13.7667C1.5 16.0069 1.5 17.127 1.93597 17.9826C2.31947 18.7353 2.93139 19.3472 3.68404 19.7307C4.53969 20.1667 5.65979 20.1667 7.9 20.1667Z" stroke="#91FF02" stroke-width="3" stroke-linecap="round" stroke-linejoin="round"/>
</svg>
