<svg width="45" height="45" viewBox="0 0 45 45" fill="none" xmlns="http://www.w3.org/2000/svg">
<path d="M22.5 3.75C17.5875 3.75 13.5938 7.74375 13.5938 12.6562C13.5938 17.475 17.3625 21.375 22.275 21.5437C22.425 21.525 22.575 21.525 22.6875 21.5437C22.725 21.5437 22.7437 21.5437 22.7812 21.5437C22.8 21.5437 22.8 21.5437 22.8188 21.5437C27.6187 21.375 31.3875 17.475 31.4062 12.6562C31.4062 7.74375 27.4125 3.75 22.5 3.75Z" fill="#FDFDFD"/>
<path d="M32.0248 26.5307C26.7936 23.0432 18.2623 23.0432 12.9936 26.5307C10.6123 28.1244 9.2998 30.2807 9.2998 32.5869C9.2998 34.8932 10.6123 37.0307 12.9748 38.6057C15.5998 40.3682 19.0498 41.2494 22.4998 41.2494C25.9498 41.2494 29.3998 40.3682 32.0248 38.6057C34.3873 37.0119 35.6998 34.8744 35.6998 32.5494C35.6811 30.2432 34.3873 28.1057 32.0248 26.5307Z" fill="#FDFDFD"/>
</svg>
